<svg width="1440" height="1024" viewBox="0 0 1440 1024" fill="none" xmlns="http://www.w3.org/2000/svg">
<path fill-rule="evenodd" clip-rule="evenodd" d="M477.26 416.421C483.66 427.334 484.973 442.934 474.821 464.018C465.26 483.873 467.333 499.568 473.536 511.162C479.815 522.898 490.466 530.675 498.323 534.2L496.276 538.762C487.645 534.89 476.038 526.438 469.127 513.521C462.14 500.462 460.091 483.082 470.316 461.849C479.948 441.846 478.294 428.068 472.947 418.951C467.509 409.679 457.921 404.649 450.713 402.911L451.885 398.05C460.01 400.01 470.95 405.663 477.26 416.421Z" fill="#FF8470" fill-opacity="0.04"/>
<path fill-rule="evenodd" clip-rule="evenodd" d="M534.235 402.787C537.637 399.56 542.715 397.265 549.757 396.136C556.087 395.121 560.183 392.907 562.794 390.196C565.402 387.488 566.734 384.07 567.147 380.267C567.987 372.529 564.961 363.62 561.776 357.724L566.175 355.347C569.595 361.677 573.113 371.645 572.118 380.807C571.613 385.454 569.933 389.991 566.395 393.665C562.859 397.336 557.674 399.931 550.548 401.073C544.136 402.101 540.118 404.098 537.677 406.415C535.277 408.691 534.199 411.463 534.007 414.507C533.61 420.813 537.051 428.118 540.594 433.015L536.543 435.946C532.734 430.682 528.512 422.206 529.017 414.192C529.277 410.077 530.791 406.055 534.235 402.787Z" fill="#8F96B1" fill-opacity="0.04"/>
<path fill-rule="evenodd" clip-rule="evenodd" d="M401.831 283.642C411.208 281.541 423.001 283.929 436.593 295.152C449.211 305.57 460.955 307.361 470.459 305.601C480.088 303.818 487.652 298.341 491.607 293.903L495.34 297.23C490.773 302.353 482.264 308.5 471.369 310.518C460.349 312.558 447.118 310.326 433.41 299.007C420.677 288.494 410.418 286.842 402.925 288.521C395.309 290.228 389.986 295.495 387.456 299.809L383.143 297.28C386.211 292.049 392.577 285.716 401.831 283.642Z" fill="#8F96B1" fill-opacity="0.04"/>
<path fill-rule="evenodd" clip-rule="evenodd" d="M533.191 242.075C534.359 243.508 536.069 244.644 538.299 245.487C539.883 246.086 540.782 246.83 541.303 247.521C541.822 248.211 542.079 248.998 542.136 249.871C542.258 251.722 541.461 253.792 540.602 255.133L544.814 257.828C546.016 255.949 547.34 252.82 547.125 249.544C547.015 247.854 546.489 246.096 545.297 244.513C544.107 242.933 542.366 241.679 540.067 240.81C538.414 240.185 537.532 239.488 537.067 238.917C536.626 238.375 536.463 237.833 536.451 237.275C536.423 236.002 537.196 234.485 538.113 233.442L534.359 230.14C533.022 231.66 531.385 234.354 531.452 237.385C531.488 238.978 531.999 240.612 533.191 242.075Z" fill="#8F96B1" fill-opacity="0.04"/>
<path fill-rule="evenodd" clip-rule="evenodd" d="M643.123 -6.83278C630.601 -5.0248 615.66 -9.69598 599.966 -27.056C585.189 -43.4031 569.872 -47.4076 556.794 -46.0392C543.557 -44.654 532.335 -37.7264 526.106 -31.7808L522.653 -35.3977C529.496 -41.9288 541.704 -49.4874 556.274 -51.012C571.004 -52.5533 587.872 -47.8912 603.676 -30.409C618.564 -13.9396 631.947 -10.271 642.408 -11.7815C653.047 -13.3176 661.323 -20.2975 665.653 -26.3165L669.712 -23.3964C664.831 -16.6118 655.467 -8.61513 643.123 -6.83278Z" fill="#8F96B1" fill-opacity="0.04"/>
<path fill-rule="evenodd" clip-rule="evenodd" d="M634.244 51.075C635.948 55.4433 636.158 61.0115 634.545 67.959C633.096 74.2034 633.6 78.8324 635.125 82.2732C636.648 85.7109 639.311 88.2347 642.677 90.0523C649.525 93.7508 658.917 94.3114 665.58 93.5869L666.12 98.5576C658.968 99.3354 648.409 98.8309 640.301 94.4517C636.188 92.2305 632.62 88.9623 630.554 84.2991C628.488 79.639 628.043 73.8584 629.674 66.8285C631.143 60.5019 630.809 56.0279 629.586 52.8925C628.384 49.8116 626.224 47.7671 623.477 46.4404C617.788 43.6923 609.724 44.1215 603.852 45.5539L602.667 40.6963C608.979 39.1565 618.421 38.4458 625.652 41.938C629.365 43.7315 632.518 46.6521 634.244 51.075Z" fill="#8F96B1" fill-opacity="0.04"/>
<path fill-rule="evenodd" clip-rule="evenodd" d="M794.55 -26.5671C792.957 -17.0912 786.294 -7.07127 770.771 1.27969C756.362 9.03171 750.27 19.2312 748.313 28.6962C746.33 38.2861 748.547 47.3576 751.164 52.6956L746.674 54.8965C743.653 48.7344 741.173 38.534 743.417 27.6836C745.686 16.7081 752.747 5.29864 768.403 -3.12354C782.944 -10.9468 788.346 -19.8229 789.619 -27.3962C790.914 -35.0931 788.044 -42.0102 785.004 -45.9816L788.975 -49.0207C792.661 -44.205 796.123 -35.9195 794.55 -26.5671Z" fill="#8F96B1" fill-opacity="0.04"/>
<path fill-rule="evenodd" clip-rule="evenodd" d="M783.464 110.765C781.696 111.306 779.999 112.461 778.376 114.208C777.224 115.449 776.196 116.001 775.358 116.222C774.524 116.443 773.698 116.383 772.868 116.107C771.108 115.52 769.492 114.001 768.574 112.7L764.489 115.583C765.775 117.406 768.173 119.813 771.288 120.85C772.894 121.386 774.721 121.562 776.637 121.056C778.549 120.55 780.367 119.412 782.04 117.61C783.243 116.315 784.221 115.762 784.925 115.547C785.593 115.343 786.157 115.397 786.679 115.596C787.868 116.051 788.981 117.339 789.6 118.582L794.075 116.351C793.172 114.54 791.295 112.007 788.463 110.926C786.974 110.357 785.268 110.214 783.464 110.765Z" fill="#8F96B1" fill-opacity="0.04"/>
<path fill-rule="evenodd" clip-rule="evenodd" d="M739.442 344.467C750.886 349.861 760.778 361.994 764.302 385.129C767.621 406.914 778.193 418.699 789.859 424.766C801.667 430.907 814.849 431.312 823.324 429.785L824.211 434.706C814.901 436.384 800.549 435.961 787.552 429.201C774.412 422.368 762.908 409.18 759.359 385.882C756.015 363.934 746.871 353.496 737.31 348.99C727.587 344.407 716.834 345.669 709.903 348.304L708.127 343.63C715.939 340.66 728.16 339.15 739.442 344.467Z" fill="#FF8470" fill-opacity="0.04"/>
<path fill-rule="evenodd" clip-rule="evenodd" d="M778.77 301.046C779.756 296.461 782.651 291.7 787.826 286.792C792.477 282.381 794.608 278.241 795.232 274.529C795.856 270.821 795.026 267.248 793.219 263.876C789.544 257.015 782.016 251.37 776.058 248.302L778.347 243.857C784.744 247.151 793.275 253.392 797.627 261.515C799.834 265.636 801.009 270.329 800.163 275.359C799.317 280.385 796.503 285.454 791.266 290.42C786.554 294.889 784.366 298.806 783.658 302.097C782.963 305.33 783.638 308.226 785.199 310.847C788.431 316.276 795.396 320.363 801.085 322.405L799.396 327.111C793.28 324.916 785.01 320.305 780.902 313.405C778.793 309.862 777.772 305.687 778.77 301.046Z" fill="#8F96B1" fill-opacity="0.04"/>
<path fill-rule="evenodd" clip-rule="evenodd" d="M602.219 277.462C608.772 270.434 619.854 265.747 637.409 267.335C653.705 268.81 664.409 263.658 671.26 256.84C678.201 249.932 681.351 241.14 682.11 235.244L687.069 235.883C686.193 242.689 682.64 252.568 674.787 260.384C666.843 268.29 654.663 273.917 636.958 272.315C620.513 270.827 611.113 275.255 605.876 280.872C600.554 286.58 599.135 293.933 599.482 298.923L594.494 299.27C594.073 293.22 595.752 284.399 602.219 277.462Z" fill="#8F96B1" fill-opacity="0.04"/>
<path fill-rule="evenodd" clip-rule="evenodd" d="M687.17 168.989C688.943 169.513 690.996 169.484 693.313 168.921C694.958 168.521 696.12 168.627 696.941 168.904C697.758 169.18 698.415 169.685 698.955 170.373C700.1 171.833 700.611 173.99 700.66 175.582L705.657 175.429C705.589 173.199 704.915 169.869 702.888 167.286C701.843 165.954 700.416 164.799 698.539 164.166C696.664 163.534 694.52 163.482 692.131 164.063C690.414 164.48 689.292 164.402 688.586 164.194C687.916 163.996 687.476 163.64 687.151 163.186C686.409 162.151 686.191 160.463 686.359 159.085L681.396 158.479C681.15 160.488 681.321 163.636 683.087 166.1C684.016 167.395 685.36 168.454 687.17 168.989Z" fill="#8F96B1" fill-opacity="0.04"/>
<path fill-rule="evenodd" clip-rule="evenodd" d="M447.665 -0.298645C445.296 -12.7262 449.291 -27.8626 465.927 -44.3206C481.593 -59.8183 484.905 -75.2998 482.95 -88.3027C480.971 -101.465 473.546 -112.364 467.326 -118.319L470.784 -121.931C477.616 -115.389 485.716 -103.533 487.894 -89.0461C490.096 -74.4005 486.197 -57.3399 469.444 -40.766C453.66 -25.1524 450.597 -11.6175 452.577 -1.235C454.59 9.3237 461.935 17.2776 468.142 21.3329L465.408 25.5188C458.411 20.9476 450.001 11.9527 447.665 -0.298645Z" fill="#8F96B1" fill-opacity="0.04"/>
<path fill-rule="evenodd" clip-rule="evenodd" d="M389.417 -6.56438C385.13 -4.66515 379.576 -4.2058 372.563 -5.50435C366.26 -6.67145 361.658 -5.95935 358.29 -4.28128C354.924 -2.60477 352.523 0.168597 350.858 3.61258C347.471 10.6203 347.334 20.0285 348.357 26.6513L343.416 27.4149C342.317 20.3049 342.346 9.73432 346.356 1.43686C348.39 -2.77174 351.495 -6.48254 356.06 -8.75677C360.623 -11.0295 366.377 -11.7347 373.474 -10.4208C379.86 -9.23829 384.314 -9.7727 387.392 -11.1359C390.415 -12.4754 392.361 -14.725 393.562 -17.5287C396.052 -23.3359 395.261 -31.3724 393.566 -37.174L398.365 -38.5762C400.187 -32.3394 401.322 -22.9386 398.158 -15.5587C396.533 -11.7687 393.758 -8.48731 389.417 -6.56438Z" fill="#8F96B1" fill-opacity="0.04"/>
<path fill-rule="evenodd" clip-rule="evenodd" d="M474.189 150.088C464.651 148.923 454.342 142.717 445.301 127.586C436.909 113.54 426.446 107.913 416.903 106.383C407.233 104.833 398.27 107.456 393.056 110.31L390.655 105.924C396.675 102.629 406.753 99.6923 417.694 101.446C428.76 103.22 440.476 109.761 449.593 125.021C458.063 139.197 467.173 144.194 474.796 145.125C482.543 146.072 489.324 142.895 493.155 139.679L496.369 143.509C491.724 147.408 483.603 151.239 474.189 150.088Z" fill="#8F96B1" fill-opacity="0.04"/>
<path fill-rule="evenodd" clip-rule="evenodd" d="M336.497 145.189C335.878 143.447 334.647 141.803 332.829 140.261C331.538 139.166 330.94 138.163 330.681 137.337C330.423 136.514 330.446 135.686 330.685 134.844C331.191 133.059 332.636 131.377 333.895 130.401L330.831 126.45C329.068 127.817 326.771 130.32 325.875 133.479C325.412 135.108 325.318 136.941 325.91 138.831C326.501 140.719 327.72 142.484 329.595 144.074C330.943 145.217 331.539 146.17 331.786 146.864C332.02 147.522 331.991 148.087 331.816 148.618C331.415 149.826 330.178 150.996 328.965 151.67L331.394 156.041C333.163 155.057 335.608 153.068 336.562 150.19C337.063 148.677 337.129 146.967 336.497 145.189Z" fill="#8F96B1" fill-opacity="0.04"/>
<path fill-rule="evenodd" clip-rule="evenodd" d="M684.26 1021.42C690.66 1032.33 691.973 1047.93 681.821 1069.02C672.26 1088.87 674.333 1104.57 680.536 1116.16C686.815 1127.9 697.466 1135.68 705.323 1139.2L703.276 1143.76C694.646 1139.89 683.038 1131.44 676.127 1118.52C669.14 1105.46 667.091 1088.08 677.316 1066.85C686.948 1046.85 685.294 1033.07 679.947 1023.95C674.509 1014.68 664.921 1009.65 657.713 1007.91L658.885 1003.05C667.011 1005.01 677.95 1010.66 684.26 1021.42Z" fill="#8F96B1" fill-opacity="0.04"/>
<path fill-rule="evenodd" clip-rule="evenodd" d="M741.235 1007.79C744.637 1004.56 749.715 1002.26 756.757 1001.14C763.087 1000.12 767.183 997.907 769.794 995.196C772.402 992.488 773.734 989.07 774.147 985.267C774.987 977.529 771.961 968.62 768.776 962.724L773.175 960.347C776.595 966.677 780.113 976.645 779.118 985.807C778.613 990.454 776.933 994.991 773.395 998.665C769.859 1002.34 764.674 1004.93 757.549 1006.07C751.136 1007.1 747.118 1009.1 744.677 1011.41C742.277 1013.69 741.199 1016.46 741.007 1019.51C740.61 1025.81 744.051 1033.12 747.594 1038.02L743.543 1040.95C739.734 1035.68 735.512 1027.21 736.017 1019.19C736.277 1015.08 737.791 1011.05 741.235 1007.79Z" fill="#8F96B1" fill-opacity="0.04"/>
<path fill-rule="evenodd" clip-rule="evenodd" d="M608.831 888.642C618.208 886.541 630.001 888.929 643.593 900.152C656.211 910.57 667.955 912.361 677.459 910.601C687.088 908.818 694.652 903.341 698.607 898.903L702.34 902.23C697.773 907.353 689.264 913.5 678.369 915.518C667.349 917.558 654.118 915.326 640.41 904.007C627.677 893.494 617.418 891.842 609.925 893.521C602.309 895.228 596.986 900.495 594.456 904.809L590.143 902.28C593.211 897.049 599.577 890.716 608.831 888.642Z" fill="#8F96B1" fill-opacity="0.04"/>
<path fill-rule="evenodd" clip-rule="evenodd" d="M740.191 847.075C741.359 848.508 743.069 849.644 745.299 850.487C746.883 851.086 747.782 851.83 748.303 852.521C748.822 853.211 749.079 853.998 749.136 854.871C749.258 856.722 748.461 858.792 747.602 860.133L751.814 862.828C753.016 860.949 754.34 857.82 754.125 854.544C754.015 852.854 753.489 851.096 752.297 849.513C751.107 847.933 749.366 846.679 747.067 845.81C745.414 845.185 744.532 844.488 744.067 843.917C743.626 843.375 743.463 842.833 743.451 842.275C743.423 841.002 744.196 839.485 745.113 838.442L741.359 835.14C740.022 836.66 738.385 839.354 738.452 842.385C738.488 843.978 738.999 845.612 740.191 847.075Z" fill="#8F96B1" fill-opacity="0.04"/>
<path fill-rule="evenodd" clip-rule="evenodd" d="M850.123 598.167C837.601 599.975 822.66 595.304 806.966 577.944C792.189 561.597 776.872 557.592 763.794 558.961C750.557 560.346 739.335 567.274 733.106 573.219L729.653 569.602C736.496 563.071 748.704 555.513 763.274 553.988C778.004 552.447 794.872 557.109 810.676 574.591C825.564 591.06 838.947 594.729 849.408 593.219C860.047 591.682 868.323 584.702 872.653 578.683L876.712 581.604C871.831 588.388 862.467 596.385 850.123 598.167Z" fill="#8F96B1" fill-opacity="0.04"/>
<path fill-rule="evenodd" clip-rule="evenodd" d="M841.244 656.075C842.948 660.443 843.158 666.011 841.545 672.959C840.096 679.203 840.6 683.832 842.125 687.273C843.648 690.711 846.311 693.235 849.677 695.052C856.525 698.751 865.917 699.311 872.58 698.587L873.12 703.558C865.968 704.335 855.409 703.831 847.301 699.452C843.188 697.231 839.62 693.962 837.554 689.299C835.488 684.639 835.043 678.858 836.674 671.829C838.143 665.502 837.809 661.028 836.586 657.893C835.384 654.812 833.224 652.767 830.477 651.44C824.788 648.692 816.724 649.121 810.852 650.554L809.667 645.696C815.979 644.156 825.421 643.446 832.652 646.938C836.365 648.731 839.518 651.652 841.244 656.075Z" fill="#8F96B1" fill-opacity="0.04"/>
<path fill-rule="evenodd" clip-rule="evenodd" d="M1001.55 578.433C999.957 587.909 993.294 597.929 977.771 606.28C963.362 614.032 957.27 624.231 955.313 633.696C953.33 643.286 955.547 652.358 958.164 657.696L953.674 659.896C950.653 653.734 948.173 643.534 950.417 632.684C952.686 621.708 959.747 610.299 975.403 601.876C989.944 594.053 995.346 585.177 996.619 577.604C997.914 569.907 995.044 562.99 992.004 559.018L995.975 555.979C999.661 560.795 1003.12 569.08 1001.55 578.433Z" fill="#FF8470" fill-opacity="0.04"/>
<path fill-rule="evenodd" clip-rule="evenodd" d="M990.464 715.765C988.696 716.306 986.999 717.461 985.376 719.208C984.224 720.449 983.196 721.001 982.358 721.222C981.524 721.443 980.698 721.383 979.868 721.107C978.108 720.52 976.492 719.001 975.574 717.7L971.489 720.583C972.775 722.406 975.173 724.813 978.288 725.85C979.894 726.386 981.721 726.562 983.637 726.056C985.549 725.55 987.367 724.412 989.04 722.61C990.243 721.315 991.221 720.762 991.925 720.547C992.593 720.343 993.157 720.397 993.679 720.596C994.868 721.051 995.981 722.339 996.6 723.582L1001.08 721.351C1000.17 719.54 998.295 717.007 995.463 715.925C993.974 715.357 992.268 715.214 990.464 715.765Z" fill="#8F96B1" fill-opacity="0.04"/>
<path fill-rule="evenodd" clip-rule="evenodd" d="M946.442 949.467C957.886 954.861 967.778 966.994 971.302 990.129C974.621 1011.91 985.193 1023.7 996.859 1029.77C1008.67 1035.91 1021.85 1036.31 1030.32 1034.79L1031.21 1039.71C1021.9 1041.38 1007.55 1040.96 994.552 1034.2C981.412 1027.37 969.908 1014.18 966.359 990.882C963.015 968.934 953.871 958.496 944.31 953.99C934.587 949.407 923.834 950.669 916.903 953.304L915.127 948.63C922.939 945.66 935.16 944.15 946.442 949.467Z" fill="#8F96B1" fill-opacity="0.04"/>
<path fill-rule="evenodd" clip-rule="evenodd" d="M985.77 906.046C986.756 901.461 989.651 896.7 994.826 891.792C999.477 887.381 1001.61 883.241 1002.23 879.529C1002.86 875.821 1002.03 872.248 1000.22 868.876C996.544 862.015 989.016 856.37 983.058 853.302L985.347 848.857C991.744 852.151 1000.28 858.392 1004.63 866.515C1006.83 870.636 1008.01 875.329 1007.16 880.359C1006.32 885.386 1003.5 890.454 998.266 895.42C993.554 899.889 991.366 903.806 990.658 907.097C989.963 910.33 990.638 913.226 992.199 915.847C995.431 921.276 1002.4 925.363 1008.08 927.405L1006.4 932.111C1000.28 929.916 992.01 925.305 987.902 918.405C985.793 914.862 984.772 910.687 985.77 906.046Z" fill="#8F96B1" fill-opacity="0.04"/>
<path fill-rule="evenodd" clip-rule="evenodd" d="M809.219 882.462C815.772 875.434 826.854 870.747 844.409 872.335C860.705 873.81 871.409 868.658 878.26 861.84C885.201 854.932 888.351 846.14 889.11 840.244L894.069 840.883C893.193 847.689 889.64 857.568 881.787 865.384C873.843 873.29 861.663 878.917 843.958 877.315C827.513 875.827 818.113 880.255 812.876 885.872C807.554 891.58 806.135 898.933 806.482 903.923L801.494 904.27C801.073 898.22 802.752 889.399 809.219 882.462Z" fill="#8F96B1" fill-opacity="0.04"/>
<path fill-rule="evenodd" clip-rule="evenodd" d="M894.17 773.989C895.943 774.513 897.996 774.484 900.313 773.921C901.958 773.521 903.12 773.627 903.941 773.904C904.758 774.18 905.415 774.685 905.955 775.373C907.1 776.833 907.611 778.99 907.66 780.582L912.657 780.429C912.589 778.199 911.915 774.869 909.888 772.286C908.843 770.954 907.416 769.799 905.539 769.166C903.664 768.534 901.52 768.482 899.131 769.063C897.414 769.48 896.293 769.402 895.586 769.194C894.916 768.996 894.476 768.64 894.151 768.186C893.409 767.151 893.191 765.463 893.359 764.085L888.396 763.479C888.15 765.488 888.321 768.636 890.087 771.1C891.016 772.395 892.361 773.454 894.17 773.989Z" fill="#8F96B1" fill-opacity="0.04"/>
<path fill-rule="evenodd" clip-rule="evenodd" d="M654.665 604.701C652.296 592.274 656.291 577.137 672.927 560.679C688.593 545.182 691.905 529.7 689.95 516.697C687.971 503.535 680.546 492.636 674.326 486.681L677.784 483.069C684.616 489.611 692.716 501.467 694.894 515.954C697.096 530.599 693.198 547.66 676.444 564.234C660.66 579.848 657.597 593.383 659.577 603.765C661.59 614.324 668.935 622.278 675.142 626.333L672.408 630.519C665.411 625.948 657.001 616.953 654.665 604.701Z" fill="#8F96B1" fill-opacity="0.04"/>
<path fill-rule="evenodd" clip-rule="evenodd" d="M596.417 598.436C592.13 600.335 586.576 600.794 579.563 599.496C573.26 598.329 568.658 599.041 565.29 600.719C561.924 602.395 559.523 605.169 557.858 608.613C554.471 615.62 554.334 625.029 555.357 631.651L550.416 632.415C549.317 625.305 549.346 614.734 553.356 606.437C555.39 602.228 558.495 598.517 563.06 596.243C567.623 593.971 573.378 593.265 580.474 594.579C586.86 595.762 591.314 595.227 594.392 593.864C597.415 592.525 599.361 590.275 600.563 587.471C603.052 581.664 602.261 573.628 600.566 567.826L605.365 566.424C607.187 572.661 608.322 582.061 605.158 589.441C603.533 593.231 600.758 596.513 596.417 598.436Z" fill="#8F96B1" fill-opacity="0.04"/>
<path fill-rule="evenodd" clip-rule="evenodd" d="M681.189 755.088C671.651 753.923 661.342 747.717 652.301 732.586C643.909 718.54 633.446 712.913 623.903 711.383C614.233 709.833 605.27 712.456 600.056 715.31L597.655 710.924C603.675 707.629 613.754 704.692 624.694 706.446C635.76 708.22 647.476 714.761 656.594 730.021C665.063 744.197 674.173 749.194 681.796 750.125C689.543 751.072 696.324 747.895 700.155 744.679L703.369 748.509C698.724 752.408 690.603 756.239 681.189 755.088Z" fill="#8F96B1" fill-opacity="0.04"/>
<path fill-rule="evenodd" clip-rule="evenodd" d="M543.497 750.189C542.878 748.447 541.648 746.803 539.829 745.261C538.538 744.166 537.94 743.163 537.681 742.337C537.423 741.514 537.446 740.686 537.685 739.844C538.191 738.059 539.636 736.377 540.895 735.401L537.831 731.45C536.068 732.817 533.771 735.32 532.875 738.479C532.412 740.108 532.318 741.941 532.91 743.831C533.501 745.719 534.72 747.484 536.595 749.074C537.943 750.217 538.539 751.17 538.786 751.864C539.02 752.522 538.991 753.087 538.816 753.618C538.415 754.826 537.178 755.996 535.965 756.67L538.394 761.041C540.163 760.057 542.608 758.068 543.562 755.19C544.063 753.677 544.129 751.967 543.497 750.189Z" fill="#8F96B1" fill-opacity="0.04"/>
<path fill-rule="evenodd" clip-rule="evenodd" d="M991.26 334.421C997.66 345.334 998.973 360.934 988.821 382.018C979.26 401.873 981.333 417.568 987.536 429.162C993.815 440.898 1004.47 448.675 1012.32 452.2L1010.28 456.762C1001.65 452.89 990.038 444.438 983.127 431.521C976.14 418.462 974.091 401.082 984.316 379.849C993.948 359.846 992.294 346.068 986.947 336.951C981.509 327.679 971.921 322.649 964.713 320.911L965.885 316.05C974.01 318.01 984.95 323.663 991.26 334.421Z" fill="#8F96B1" fill-opacity="0.04"/>
<path fill-rule="evenodd" clip-rule="evenodd" d="M1048.24 320.787C1051.64 317.56 1056.71 315.265 1063.76 314.136C1070.09 313.121 1074.18 310.907 1076.79 308.196C1079.4 305.488 1080.73 302.07 1081.15 298.267C1081.99 290.529 1078.96 281.62 1075.78 275.724L1080.18 273.347C1083.59 279.677 1087.11 289.645 1086.12 298.807C1085.61 303.454 1083.93 307.991 1080.4 311.665C1076.86 315.336 1071.67 317.931 1064.55 319.073C1058.14 320.101 1054.12 322.098 1051.68 324.415C1049.28 326.691 1048.2 329.463 1048.01 332.507C1047.61 338.813 1051.05 346.118 1054.59 351.015L1050.54 353.946C1046.73 348.682 1042.51 340.206 1043.02 332.192C1043.28 328.077 1044.79 324.055 1048.24 320.787Z" fill="#8F96B1" fill-opacity="0.04"/>
<path fill-rule="evenodd" clip-rule="evenodd" d="M915.831 201.642C925.208 199.541 937.001 201.929 950.593 213.152C963.211 223.57 974.955 225.361 984.459 223.601C994.088 221.818 1001.65 216.341 1005.61 211.903L1009.34 215.23C1004.77 220.353 996.264 226.5 985.369 228.518C974.349 230.558 961.118 228.326 947.41 217.007C934.677 206.494 924.418 204.842 916.925 206.521C909.309 208.228 903.986 213.495 901.456 217.809L897.143 215.28C900.211 210.049 906.577 203.716 915.831 201.642Z" fill="#8F96B1" fill-opacity="0.04"/>
<path fill-rule="evenodd" clip-rule="evenodd" d="M1047.19 160.075C1048.36 161.508 1050.07 162.644 1052.3 163.487C1053.88 164.086 1054.78 164.83 1055.3 165.521C1055.82 166.211 1056.08 166.998 1056.14 167.871C1056.26 169.722 1055.46 171.792 1054.6 173.133L1058.81 175.828C1060.02 173.949 1061.34 170.82 1061.13 167.544C1061.01 165.854 1060.49 164.096 1059.3 162.513C1058.11 160.933 1056.37 159.679 1054.07 158.81C1052.41 158.185 1051.53 157.488 1051.07 156.917C1050.63 156.375 1050.46 155.833 1050.45 155.275C1050.42 154.002 1051.2 152.485 1052.11 151.442L1048.36 148.14C1047.02 149.66 1045.39 152.354 1045.45 155.385C1045.49 156.978 1046 158.612 1047.19 160.075Z" fill="#8F96B1" fill-opacity="0.04"/>
<path fill-rule="evenodd" clip-rule="evenodd" d="M1157.12 -88.8328C1144.6 -87.0248 1129.66 -91.696 1113.97 -109.056C1099.19 -125.403 1083.87 -129.408 1070.79 -128.039C1057.56 -126.654 1046.33 -119.726 1040.11 -113.781L1036.65 -117.398C1043.5 -123.929 1055.7 -131.487 1070.27 -133.012C1085 -134.553 1101.87 -129.891 1117.68 -112.409C1132.56 -95.9396 1145.95 -92.271 1156.41 -93.7815C1167.05 -95.3176 1175.32 -102.298 1179.65 -108.317L1183.71 -105.396C1178.83 -98.6119 1169.47 -90.6152 1157.12 -88.8328Z" fill="#8F96B1" fill-opacity="0.04"/>
<path fill-rule="evenodd" clip-rule="evenodd" d="M1148.24 -30.925C1149.95 -26.5567 1150.16 -20.9886 1148.54 -14.041C1147.1 -7.79668 1147.6 -3.1676 1149.12 0.273209C1150.65 3.71084 1153.31 6.23465 1156.68 8.05231C1163.52 11.7508 1172.92 12.3114 1179.58 11.5869L1180.12 16.5576C1172.97 17.3354 1162.41 16.8309 1154.3 12.4517C1150.19 10.2305 1146.62 6.96229 1144.55 2.29906C1142.49 -2.36099 1142.04 -8.14162 1143.67 -15.1715C1145.14 -21.4981 1144.81 -25.9721 1143.59 -29.1075C1142.38 -32.1884 1140.22 -34.2329 1137.48 -35.5597C1131.79 -38.3077 1123.72 -37.8786 1117.85 -36.4462L1116.67 -41.3037C1122.98 -42.8436 1132.42 -43.5543 1139.65 -40.062C1143.36 -38.2685 1146.52 -35.3479 1148.24 -30.925Z" fill="#8F96B1" fill-opacity="0.04"/>
<path fill-rule="evenodd" clip-rule="evenodd" d="M1308.55 -108.567C1306.96 -99.0912 1300.29 -89.0713 1284.77 -80.7203C1270.36 -72.9683 1264.27 -62.7688 1262.31 -53.3039C1260.33 -43.7139 1262.55 -34.6424 1265.16 -29.3044L1260.67 -27.1035C1257.65 -33.2657 1255.17 -43.466 1257.42 -54.3165C1259.69 -65.2919 1266.75 -76.7014 1282.4 -85.1236C1296.94 -92.9468 1302.35 -101.823 1303.62 -109.396C1304.91 -117.093 1302.04 -124.01 1299 -127.982L1302.97 -131.021C1306.66 -126.205 1310.12 -117.92 1308.55 -108.567Z" fill="#8F96B1" fill-opacity="0.04"/>
<path fill-rule="evenodd" clip-rule="evenodd" d="M1297.46 28.7653C1295.7 29.3057 1294 30.4608 1292.38 32.2078C1291.22 33.4486 1290.2 34.0007 1289.36 34.222C1288.52 34.4427 1287.7 34.3832 1286.87 34.1065C1285.11 33.5202 1283.49 32.0014 1282.57 30.7L1278.49 33.5828C1279.78 35.4057 1282.17 37.8128 1285.29 38.8503C1286.89 39.3855 1288.72 39.5624 1290.64 39.0559C1292.55 38.5502 1294.37 37.4115 1296.04 35.6103C1297.24 34.3153 1298.22 33.7622 1298.93 33.547C1299.59 33.3428 1300.16 33.3969 1300.68 33.5963C1301.87 34.0506 1302.98 35.339 1303.6 36.5817L1308.08 34.3513C1307.17 32.5398 1305.3 30.0074 1302.46 28.9255C1300.97 28.3568 1299.27 28.2139 1297.46 28.7653Z" fill="#8F96B1" fill-opacity="0.04"/>
<path fill-rule="evenodd" clip-rule="evenodd" d="M1253.44 262.467C1264.89 267.861 1274.78 279.994 1278.3 303.129C1281.62 324.914 1292.19 336.699 1303.86 342.766C1315.67 348.907 1328.85 349.312 1337.32 347.785L1338.21 352.706C1328.9 354.384 1314.55 353.961 1301.55 347.201C1288.41 340.368 1276.91 327.18 1273.36 303.882C1270.02 281.934 1260.87 271.496 1251.31 266.99C1241.59 262.407 1230.83 263.669 1223.9 266.304L1222.13 261.63C1229.94 258.66 1242.16 257.15 1253.44 262.467Z" fill="#FF8470" fill-opacity="0.04"/>
<path fill-rule="evenodd" clip-rule="evenodd" d="M1292.77 219.046C1293.76 214.461 1296.65 209.7 1301.83 204.792C1306.48 200.381 1308.61 196.241 1309.23 192.529C1309.86 188.821 1309.03 185.248 1307.22 181.876C1303.54 175.015 1296.02 169.37 1290.06 166.302L1292.35 161.857C1298.74 165.151 1307.28 171.392 1311.63 179.515C1313.83 183.636 1315.01 188.329 1314.16 193.359C1313.32 198.385 1310.5 203.454 1305.27 208.42C1300.55 212.889 1298.37 216.806 1297.66 220.097C1296.96 223.33 1297.64 226.226 1299.2 228.847C1302.43 234.276 1309.4 238.363 1315.08 240.405L1313.4 245.111C1307.28 242.916 1299.01 238.305 1294.9 231.405C1292.79 227.862 1291.77 223.687 1292.77 219.046Z" fill="#8F96B1" fill-opacity="0.04"/>
<path fill-rule="evenodd" clip-rule="evenodd" d="M1116.22 195.462C1122.77 188.434 1133.85 183.747 1151.41 185.335C1167.7 186.81 1178.41 181.658 1185.26 174.84C1192.2 167.932 1195.35 159.14 1196.11 153.244L1201.07 153.883C1200.19 160.689 1196.64 170.567 1188.79 178.384C1180.84 186.29 1168.66 191.917 1150.96 190.315C1134.51 188.827 1125.11 193.255 1119.88 198.872C1114.55 204.58 1113.13 211.933 1113.48 216.923L1108.49 217.27C1108.07 211.22 1109.75 202.399 1116.22 195.462Z" fill="#8F96B1" fill-opacity="0.04"/>
<path fill-rule="evenodd" clip-rule="evenodd" d="M1201.17 86.9887C1202.94 87.5126 1205 87.4844 1207.31 86.921C1208.96 86.5209 1210.12 86.6272 1210.94 86.9039C1211.76 87.1797 1212.41 87.6845 1212.96 88.3732C1214.1 89.8325 1214.61 91.9902 1214.66 93.5822L1219.66 93.4288C1219.59 91.1988 1218.92 87.8687 1216.89 85.2862C1215.84 83.954 1214.42 82.7993 1212.54 82.1662C1210.66 81.534 1208.52 81.4818 1206.13 82.0626C1204.41 82.4802 1203.29 82.4022 1202.59 82.1936C1201.92 81.9957 1201.48 81.6402 1201.15 81.186C1200.41 80.1513 1200.19 78.4631 1200.36 77.0847L1195.4 76.479C1195.15 78.4881 1195.32 81.6358 1197.09 84.0997C1198.02 85.3947 1199.36 86.4542 1201.17 86.9887Z" fill="#8F96B1" fill-opacity="0.04"/>
<path fill-rule="evenodd" clip-rule="evenodd" d="M961.665 -82.2987C959.296 -94.7262 963.291 -109.863 979.927 -126.321C995.593 -141.818 998.905 -157.3 996.95 -170.303C994.971 -183.465 987.545 -194.364 981.326 -200.319L984.784 -203.931C991.616 -197.389 999.716 -185.533 1001.89 -171.046C1004.1 -156.401 1000.2 -139.34 983.444 -122.766C967.66 -107.152 964.597 -93.6175 966.577 -83.235C968.59 -72.6763 975.935 -64.7225 982.142 -60.6671L979.408 -56.4812C972.41 -61.0524 964.001 -70.0473 961.665 -82.2987Z" fill="#8F96B1" fill-opacity="0.04"/>
<path fill-rule="evenodd" clip-rule="evenodd" d="M903.417 -88.5644C899.13 -86.6652 893.576 -86.2058 886.563 -87.5044C880.26 -88.6715 875.658 -87.9594 872.29 -86.2813C868.924 -84.6048 866.523 -81.8314 864.858 -78.3875C861.471 -71.3797 861.334 -61.9715 862.357 -55.3487L857.416 -54.5851C856.317 -61.6951 856.346 -72.2657 860.356 -80.5632C862.39 -84.7718 865.495 -88.4826 870.06 -90.7568C874.623 -93.0295 880.377 -93.7347 887.474 -92.4208C893.86 -91.2383 898.314 -91.7727 901.392 -93.1359C904.415 -94.4754 906.361 -96.725 907.562 -99.5287C910.052 -105.336 909.261 -113.372 907.566 -119.174L912.365 -120.576C914.187 -114.339 915.322 -104.939 912.158 -97.5587C910.533 -93.7688 907.758 -90.4873 903.417 -88.5644Z" fill="#8F96B1" fill-opacity="0.04"/>
<path fill-rule="evenodd" clip-rule="evenodd" d="M988.189 68.0882C978.651 66.9227 968.342 60.7173 959.301 45.5858C950.909 31.5396 940.446 25.9127 930.903 24.3829C921.233 22.833 912.27 25.4561 907.056 28.3103L904.655 23.9242C910.675 20.6294 920.754 17.6922 931.694 19.446C942.76 21.2199 954.476 27.7608 963.594 43.0213C972.063 57.1966 981.173 62.1936 988.796 63.1252C996.543 64.0719 1003.32 60.8945 1007.15 57.6791L1010.37 61.5088C1005.72 65.4078 997.603 69.2386 988.189 68.0882Z" fill="#8F96B1" fill-opacity="0.04"/>
<path fill-rule="evenodd" clip-rule="evenodd" d="M850.497 63.1891C849.878 61.4469 848.647 59.8034 846.829 58.2611C845.538 57.1658 844.94 56.1633 844.681 55.3369C844.423 54.5135 844.446 53.6859 844.685 52.8438C845.191 51.0591 846.636 49.3771 847.895 48.4012L844.831 44.4497C843.068 45.8167 840.771 48.3204 839.875 51.4785C839.412 53.1077 839.318 54.9407 839.91 56.8313C840.501 58.719 841.72 60.4842 843.595 62.0742C844.943 63.2174 845.539 64.1703 845.786 64.864C846.02 65.5222 845.991 66.0871 845.816 66.6177C845.415 67.8263 844.178 68.9958 842.965 69.6704L845.394 74.0405C847.163 73.0571 849.608 71.0681 850.562 68.19C851.063 66.6772 851.129 64.9668 850.497 63.1891Z" fill="#8F96B1" fill-opacity="0.04"/>
<path fill-rule="evenodd" clip-rule="evenodd" d="M1258.26 1030.42C1264.66 1041.33 1265.97 1056.93 1255.82 1078.02C1246.26 1097.87 1248.33 1113.57 1254.54 1125.16C1260.81 1136.9 1271.47 1144.68 1279.32 1148.2L1277.28 1152.76C1268.65 1148.89 1257.04 1140.44 1250.13 1127.52C1243.14 1114.46 1241.09 1097.08 1251.32 1075.85C1260.95 1055.85 1259.29 1042.07 1253.95 1032.95C1248.51 1023.68 1238.92 1018.65 1231.71 1016.91L1232.89 1012.05C1241.01 1014.01 1251.95 1019.66 1258.26 1030.42Z" fill="#8F96B1" fill-opacity="0.04"/>
<path fill-rule="evenodd" clip-rule="evenodd" d="M1315.24 1016.79C1318.64 1013.56 1323.71 1011.26 1330.76 1010.14C1337.09 1009.12 1341.18 1006.91 1343.79 1004.2C1346.4 1001.49 1347.73 998.07 1348.15 994.267C1348.99 986.529 1345.96 977.62 1342.78 971.724L1347.18 969.347C1350.59 975.677 1354.11 985.645 1353.12 994.807C1352.61 999.454 1350.93 1003.99 1347.4 1007.66C1343.86 1011.34 1338.67 1013.93 1331.55 1015.07C1325.14 1016.1 1321.12 1018.1 1318.68 1020.41C1316.28 1022.69 1315.2 1025.46 1315.01 1028.51C1314.61 1034.81 1318.05 1042.12 1321.59 1047.02L1317.54 1049.95C1313.73 1044.68 1309.51 1036.21 1310.02 1028.19C1310.28 1024.08 1311.79 1020.05 1315.24 1016.79Z" fill="#8F96B1" fill-opacity="0.04"/>
<path fill-rule="evenodd" clip-rule="evenodd" d="M1182.83 897.642C1192.21 895.541 1204 897.929 1217.59 909.152C1230.21 919.57 1241.95 921.361 1251.46 919.601C1261.09 917.818 1268.65 912.341 1272.61 907.903L1276.34 911.23C1271.77 916.353 1263.26 922.5 1252.37 924.518C1241.35 926.558 1228.12 924.326 1214.41 913.007C1201.68 902.494 1191.42 900.842 1183.92 902.521C1176.31 904.228 1170.99 909.495 1168.46 913.809L1164.14 911.28C1167.21 906.049 1173.58 899.716 1182.83 897.642Z" fill="#8F96B1" fill-opacity="0.04"/>
<path fill-rule="evenodd" clip-rule="evenodd" d="M1314.19 856.075C1315.36 857.508 1317.07 858.644 1319.3 859.487C1320.88 860.086 1321.78 860.83 1322.3 861.521C1322.82 862.211 1323.08 862.998 1323.14 863.871C1323.26 865.722 1322.46 867.792 1321.6 869.133L1325.81 871.828C1327.02 869.949 1328.34 866.82 1328.13 863.544C1328.01 861.854 1327.49 860.096 1326.3 858.513C1325.11 856.933 1323.37 855.679 1321.07 854.81C1319.41 854.185 1318.53 853.487 1318.07 852.917C1317.63 852.375 1317.46 851.833 1317.45 851.275C1317.42 850.002 1318.2 848.485 1319.11 847.442L1315.36 844.14C1314.02 845.66 1312.39 848.354 1312.45 851.385C1312.49 852.978 1313 854.612 1314.19 856.075Z" fill="#8F96B1" fill-opacity="0.04"/>
<path fill-rule="evenodd" clip-rule="evenodd" d="M1424.12 607.167C1411.6 608.975 1396.66 604.304 1380.97 586.944C1366.19 570.597 1350.87 566.592 1337.79 567.961C1324.56 569.346 1313.33 576.274 1307.11 582.219L1303.65 578.602C1310.5 572.071 1322.7 564.513 1337.27 562.988C1352 561.447 1368.87 566.109 1384.68 583.591C1399.56 600.06 1412.95 603.729 1423.41 602.219C1434.05 600.682 1442.32 593.702 1446.65 587.683L1450.71 590.604C1445.83 597.388 1436.47 605.385 1424.12 607.167Z" fill="#8F96B1" fill-opacity="0.04"/>
<path fill-rule="evenodd" clip-rule="evenodd" d="M1415.24 665.075C1416.95 669.443 1417.16 675.011 1415.54 681.959C1414.1 688.203 1414.6 692.832 1416.12 696.273C1417.65 699.711 1420.31 702.235 1423.68 704.052C1430.52 707.751 1439.92 708.311 1446.58 707.587L1447.12 712.558C1439.97 713.335 1429.41 712.831 1421.3 708.452C1417.19 706.231 1413.62 702.962 1411.55 698.299C1409.49 693.639 1409.04 687.858 1410.67 680.828C1412.14 674.502 1411.81 670.028 1410.59 666.892C1409.38 663.812 1407.22 661.767 1404.48 660.44C1398.79 657.692 1390.72 658.121 1384.85 659.554L1383.67 654.696C1389.98 653.156 1399.42 652.446 1406.65 655.938C1410.36 657.731 1413.52 660.652 1415.24 665.075Z" fill="#8F96B1" fill-opacity="0.04"/>
<path fill-rule="evenodd" clip-rule="evenodd" d="M1575.55 587.433C1573.96 596.909 1567.29 606.929 1551.77 615.28C1537.36 623.032 1531.27 633.231 1529.31 642.696C1527.33 652.286 1529.55 661.358 1532.16 666.696L1527.67 668.896C1524.65 662.734 1522.17 652.534 1524.42 641.684C1526.69 630.708 1533.75 619.299 1549.4 610.876C1563.94 603.053 1569.35 594.177 1570.62 586.604C1571.91 578.907 1569.04 571.99 1566 568.018L1569.97 564.979C1573.66 569.795 1577.12 578.08 1575.55 587.433Z" fill="#8F96B1" fill-opacity="0.04"/>
<path fill-rule="evenodd" clip-rule="evenodd" d="M1564.46 724.765C1562.7 725.306 1561 726.461 1559.38 728.208C1558.22 729.449 1557.2 730.001 1556.36 730.222C1555.52 730.443 1554.7 730.383 1553.87 730.107C1552.11 729.52 1550.49 728.001 1549.57 726.7L1545.49 729.583C1546.78 731.406 1549.17 733.813 1552.29 734.85C1553.89 735.385 1555.72 735.562 1557.64 735.056C1559.55 734.55 1561.37 733.412 1563.04 731.61C1564.24 730.315 1565.22 729.762 1565.93 729.547C1566.59 729.343 1567.16 729.397 1567.68 729.596C1568.87 730.051 1569.98 731.339 1570.6 732.582L1575.08 730.351C1574.17 728.54 1572.3 726.007 1569.46 724.925C1567.97 724.357 1566.27 724.214 1564.46 724.765Z" fill="#8F96B1" fill-opacity="0.04"/>
<path fill-rule="evenodd" clip-rule="evenodd" d="M1520.44 958.467C1531.89 963.861 1541.78 975.994 1545.3 999.129C1548.62 1020.91 1559.19 1032.7 1570.86 1038.77C1582.67 1044.91 1595.85 1045.31 1604.32 1043.79L1605.21 1048.71C1595.9 1050.38 1581.55 1049.96 1568.55 1043.2C1555.41 1036.37 1543.91 1023.18 1540.36 999.882C1537.02 977.934 1527.87 967.496 1518.31 962.99C1508.59 958.407 1497.83 959.669 1490.9 962.304L1489.13 957.63C1496.94 954.66 1509.16 953.15 1520.44 958.467Z" fill="#8F96B1" fill-opacity="0.04"/>
<path fill-rule="evenodd" clip-rule="evenodd" d="M1559.77 915.046C1560.76 910.461 1563.65 905.7 1568.83 900.792C1573.48 896.381 1575.61 892.241 1576.23 888.529C1576.86 884.821 1576.03 881.248 1574.22 877.876C1570.54 871.015 1563.02 865.37 1557.06 862.302L1559.35 857.857C1565.74 861.151 1574.28 867.392 1578.63 875.515C1580.83 879.636 1582.01 884.329 1581.16 889.359C1580.32 894.385 1577.5 899.454 1572.27 904.42C1567.55 908.889 1565.37 912.806 1564.66 916.097C1563.96 919.33 1564.64 922.226 1566.2 924.847C1569.43 930.276 1576.4 934.363 1582.08 936.405L1580.4 941.111C1574.28 938.916 1566.01 934.304 1561.9 927.405C1559.79 923.862 1558.77 919.687 1559.77 915.046Z" fill="#8F96B1" fill-opacity="0.04"/>
<path fill-rule="evenodd" clip-rule="evenodd" d="M1383.22 891.462C1389.77 884.434 1400.85 879.747 1418.41 881.335C1434.7 882.81 1445.41 877.658 1452.26 870.84C1459.2 863.932 1462.35 855.14 1463.11 849.244L1468.07 849.883C1467.19 856.689 1463.64 866.568 1455.79 874.384C1447.84 882.29 1435.66 887.917 1417.96 886.315C1401.51 884.827 1392.11 889.255 1386.88 894.872C1381.55 900.58 1380.13 907.933 1380.48 912.923L1375.49 913.27C1375.07 907.22 1376.75 898.399 1383.22 891.462Z" fill="#8F96B1" fill-opacity="0.04"/>
<path fill-rule="evenodd" clip-rule="evenodd" d="M1468.17 782.989C1469.94 783.513 1472 783.484 1474.31 782.921C1475.96 782.521 1477.12 782.627 1477.94 782.904C1478.76 783.18 1479.41 783.685 1479.96 784.373C1481.1 785.833 1481.61 787.99 1481.66 789.582L1486.66 789.429C1486.59 787.199 1485.92 783.869 1483.89 781.286C1482.84 779.954 1481.42 778.799 1479.54 778.166C1477.66 777.534 1475.52 777.482 1473.13 778.063C1471.41 778.48 1470.29 778.402 1469.59 778.194C1468.92 777.996 1468.48 777.64 1468.15 777.186C1467.41 776.151 1467.19 774.463 1467.36 773.085L1462.4 772.479C1462.15 774.488 1462.32 777.636 1464.09 780.1C1465.02 781.395 1466.36 782.454 1468.17 782.989Z" fill="#8F96B1" fill-opacity="0.04"/>
<path fill-rule="evenodd" clip-rule="evenodd" d="M1228.67 613.701C1226.3 601.274 1230.29 586.137 1246.93 569.679C1262.59 554.182 1265.9 538.7 1263.95 525.697C1261.97 512.535 1254.55 501.636 1248.33 495.681L1251.78 492.069C1258.62 498.611 1266.72 510.467 1268.89 524.954C1271.1 539.599 1267.2 556.66 1250.44 573.234C1234.66 588.848 1231.6 602.382 1233.58 612.765C1235.59 623.324 1242.93 631.278 1249.14 635.333L1246.41 639.519C1239.41 634.948 1231 625.953 1228.67 613.701Z" fill="#FF8470" fill-opacity="0.04"/>
<path fill-rule="evenodd" clip-rule="evenodd" d="M1170.42 607.436C1166.13 609.335 1160.58 609.794 1153.56 608.496C1147.26 607.329 1142.66 608.041 1139.29 609.719C1135.92 611.395 1133.52 614.169 1131.86 617.613C1128.47 624.62 1128.33 634.029 1129.36 640.651L1124.42 641.415C1123.32 634.305 1123.35 623.734 1127.36 615.437C1129.39 611.228 1132.49 607.517 1137.06 605.243C1141.62 602.971 1147.38 602.265 1154.47 603.579C1160.86 604.762 1165.31 604.227 1168.39 602.864C1171.42 601.525 1173.36 599.275 1174.56 596.471C1177.05 590.664 1176.26 582.628 1174.57 576.826L1179.36 575.424C1181.19 581.661 1182.32 591.061 1179.16 598.441C1177.53 602.231 1174.76 605.513 1170.42 607.436Z" fill="#8F96B1" fill-opacity="0.04"/>
<path fill-rule="evenodd" clip-rule="evenodd" d="M1255.19 764.088C1245.65 762.923 1235.34 756.717 1226.3 741.586C1217.91 727.54 1207.45 721.913 1197.9 720.383C1188.23 718.833 1179.27 721.456 1174.06 724.31L1171.66 719.924C1177.68 716.629 1187.75 713.692 1198.69 715.446C1209.76 717.22 1221.48 723.761 1230.59 739.021C1239.06 753.197 1248.17 758.194 1255.8 759.125C1263.54 760.072 1270.32 756.895 1274.15 753.679L1277.37 757.509C1272.72 761.408 1264.6 765.239 1255.19 764.088Z" fill="#8F96B1" fill-opacity="0.04"/>
<path fill-rule="evenodd" clip-rule="evenodd" d="M1117.5 759.189C1116.88 757.447 1115.65 755.803 1113.83 754.261C1112.54 753.166 1111.94 752.163 1111.68 751.337C1111.42 750.513 1111.45 749.686 1111.68 748.844C1112.19 747.059 1113.64 745.377 1114.89 744.401L1111.83 740.45C1110.07 741.817 1107.77 744.32 1106.87 747.478C1106.41 749.108 1106.32 750.941 1106.91 752.831C1107.5 754.719 1108.72 756.484 1110.6 758.074C1111.94 759.217 1112.54 760.17 1112.79 760.864C1113.02 761.522 1112.99 762.087 1112.82 762.618C1112.42 763.826 1111.18 764.996 1109.96 765.67L1112.39 770.041C1114.16 769.057 1116.61 767.068 1117.56 764.19C1118.06 762.677 1118.13 760.967 1117.5 759.189Z" fill="#8F96B1" fill-opacity="0.04"/>
<path fill-rule="evenodd" clip-rule="evenodd" d="M136.26 1039.42C142.66 1050.33 143.974 1065.93 133.821 1087.02C124.26 1106.87 126.333 1122.57 132.536 1134.16C138.815 1145.9 149.466 1153.68 157.323 1157.2L155.276 1161.76C146.646 1157.89 135.038 1149.44 128.127 1136.52C121.14 1123.46 119.091 1106.08 129.316 1084.85C138.948 1064.85 137.294 1051.07 131.947 1041.95C126.509 1032.68 116.921 1027.65 109.713 1025.91L110.885 1021.05C119.011 1023.01 129.95 1028.66 136.26 1039.42Z" fill="#8F96B1" fill-opacity="0.04"/>
<path fill-rule="evenodd" clip-rule="evenodd" d="M193.235 1025.79C196.637 1022.56 201.715 1020.26 208.757 1019.14C215.087 1018.12 219.183 1015.91 221.794 1013.2C224.402 1010.49 225.734 1007.07 226.147 1003.27C226.987 995.529 223.962 986.62 220.776 980.724L225.175 978.347C228.595 984.677 232.113 994.645 231.118 1003.81C230.613 1008.45 228.933 1012.99 225.395 1016.66C221.859 1020.34 216.674 1022.93 209.548 1024.07C203.136 1025.1 199.118 1027.1 196.677 1029.41C194.277 1031.69 193.199 1034.46 193.007 1037.51C192.61 1043.81 196.051 1051.12 199.594 1056.02L195.543 1058.95C191.734 1053.68 187.512 1045.21 188.017 1037.19C188.277 1033.08 189.791 1029.05 193.235 1025.79Z" fill="#8F96B1" fill-opacity="0.04"/>
<path fill-rule="evenodd" clip-rule="evenodd" d="M60.8314 906.642C70.2079 904.541 82.0014 906.929 95.5935 918.152C108.211 928.57 119.955 930.361 129.459 928.601C139.088 926.818 146.652 921.341 150.607 916.903L154.34 920.23C149.773 925.353 141.264 931.5 130.369 933.518C119.349 935.558 106.118 933.326 92.41 922.007C79.6768 911.494 69.4185 909.842 61.9247 911.521C54.3086 913.228 48.9861 918.495 46.4557 922.809L42.1429 920.28C45.2111 915.049 51.5772 908.716 60.8314 906.642Z" fill="#8F96B1" fill-opacity="0.04"/>
<path fill-rule="evenodd" clip-rule="evenodd" d="M192.191 865.075C193.359 866.508 195.069 867.644 197.299 868.487C198.883 869.086 199.782 869.83 200.303 870.521C200.822 871.211 201.079 871.998 201.136 872.871C201.258 874.722 200.461 876.792 199.602 878.133L203.814 880.828C205.016 878.949 206.34 875.82 206.126 872.544C206.015 870.854 205.489 869.096 204.297 867.513C203.107 865.933 201.366 864.679 199.067 863.81C197.414 863.185 196.532 862.488 196.067 861.917C195.626 861.375 195.463 860.833 195.451 860.275C195.423 859.002 196.196 857.485 197.113 856.442L193.359 853.14C192.022 854.66 190.385 857.354 190.452 860.385C190.488 861.978 190.999 863.612 192.191 865.075Z" fill="#8F96B1" fill-opacity="0.04"/>
<path fill-rule="evenodd" clip-rule="evenodd" d="M302.123 616.167C289.601 617.975 274.66 613.304 258.966 595.944C244.189 579.597 228.872 575.592 215.794 576.961C202.557 578.346 191.335 585.274 185.106 591.219L181.653 587.602C188.496 581.071 200.704 573.513 215.274 571.988C230.004 570.447 246.872 575.109 262.676 592.591C277.564 609.06 290.947 612.729 301.408 611.219C312.047 609.682 320.323 602.703 324.653 596.684L328.712 599.604C323.831 606.388 314.467 614.385 302.123 616.167Z" fill="#8F96B1" fill-opacity="0.04"/>
<path fill-rule="evenodd" clip-rule="evenodd" d="M293.244 674.075C294.948 678.443 295.158 684.011 293.545 690.959C292.096 697.203 292.6 701.832 294.125 705.273C295.648 708.711 298.311 711.235 301.677 713.052C308.525 716.751 317.917 717.311 324.58 716.587L325.12 721.558C317.968 722.335 307.409 721.831 299.301 717.452C295.188 715.231 291.62 711.962 289.554 707.299C287.488 702.639 287.043 696.858 288.674 689.829C290.143 683.502 289.809 679.028 288.586 675.893C287.384 672.812 285.224 670.767 282.477 669.44C276.788 666.692 268.724 667.121 262.852 668.554L261.667 663.696C267.979 662.156 277.422 661.446 284.652 664.938C288.365 666.731 291.518 669.652 293.244 674.075Z" fill="#8F96B1" fill-opacity="0.04"/>
<path fill-rule="evenodd" clip-rule="evenodd" d="M453.55 596.433C451.957 605.909 445.294 615.929 429.771 624.28C415.362 632.032 409.27 642.231 407.313 651.696C405.33 661.286 407.547 670.358 410.164 675.696L405.674 677.896C402.654 671.734 400.173 661.534 402.417 650.684C404.686 639.708 411.747 628.299 427.403 619.876C441.944 612.053 447.346 603.177 448.619 595.604C449.914 587.907 447.044 580.99 444.004 577.018L447.975 573.979C451.661 578.795 455.123 587.08 453.55 596.433Z" fill="#8F96B1" fill-opacity="0.04"/>
<path fill-rule="evenodd" clip-rule="evenodd" d="M442.464 733.765C440.696 734.306 438.999 735.461 437.376 737.208C436.224 738.449 435.196 739.001 434.358 739.222C433.524 739.443 432.698 739.383 431.868 739.107C430.108 738.52 428.492 737.001 427.574 735.7L423.489 738.583C424.775 740.406 427.173 742.813 430.288 743.85C431.894 744.386 433.721 744.562 435.637 744.056C437.549 743.55 439.367 742.412 441.04 740.61C442.243 739.315 443.221 738.762 443.925 738.547C444.593 738.343 445.157 738.397 445.679 738.596C446.868 739.051 447.981 740.339 448.6 741.582L453.075 739.351C452.172 737.54 450.295 735.007 447.463 733.926C445.974 733.357 444.268 733.214 442.464 733.765Z" fill="#8F96B1" fill-opacity="0.04"/>
<path fill-rule="evenodd" clip-rule="evenodd" d="M398.442 967.467C409.886 972.861 419.778 984.994 423.302 1008.13C426.621 1029.91 437.193 1041.7 448.859 1047.77C460.667 1053.91 473.849 1054.31 482.324 1052.79L483.211 1057.71C473.901 1059.38 459.549 1058.96 446.552 1052.2C433.412 1045.37 421.908 1032.18 418.359 1008.88C415.015 986.934 405.871 976.496 396.31 971.99C386.587 967.407 375.834 968.669 368.903 971.304L367.127 966.63C374.939 963.66 387.16 962.15 398.442 967.467Z" fill="#8F96B1" fill-opacity="0.04"/>
<path fill-rule="evenodd" clip-rule="evenodd" d="M437.77 924.046C438.756 919.461 441.651 914.7 446.826 909.792C451.477 905.381 453.608 901.241 454.232 897.53C454.856 893.822 454.026 890.248 452.219 886.876C448.544 880.015 441.016 874.37 435.059 871.302L437.347 866.857C443.744 870.151 452.275 876.392 456.627 884.515C458.834 888.636 460.009 893.329 459.163 898.359C458.317 903.386 455.503 908.454 450.266 913.42C445.554 917.889 443.366 921.806 442.658 925.097C441.963 928.33 442.638 931.226 444.199 933.847C447.431 939.276 454.396 943.363 460.085 945.405L458.396 950.111C452.28 947.916 444.01 943.305 439.902 936.405C437.793 932.862 436.772 928.687 437.77 924.046Z" fill="#8F96B1" fill-opacity="0.04"/>
<path fill-rule="evenodd" clip-rule="evenodd" d="M261.219 900.462C267.772 893.434 278.854 888.747 296.409 890.335C312.705 891.81 323.409 886.658 330.26 879.84C337.201 872.932 340.351 864.14 341.11 858.244L346.069 858.883C345.193 865.689 341.64 875.568 333.787 883.384C325.843 891.29 313.663 896.917 295.958 895.315C279.513 893.827 270.113 898.255 264.876 903.872C259.554 909.581 258.135 916.933 258.482 921.923L253.494 922.27C253.073 916.22 254.752 907.399 261.219 900.462Z" fill="#8F96B1" fill-opacity="0.04"/>
<path fill-rule="evenodd" clip-rule="evenodd" d="M346.17 791.989C347.943 792.513 349.996 792.484 352.313 791.921C353.958 791.521 355.12 791.627 355.941 791.904C356.758 792.18 357.415 792.685 357.955 793.373C359.1 794.833 359.611 796.99 359.66 798.582L364.658 798.429C364.589 796.199 363.915 792.869 361.888 790.286C360.843 788.954 359.416 787.799 357.539 787.166C355.664 786.534 353.52 786.482 351.131 787.063C349.414 787.48 348.292 787.402 347.586 787.194C346.916 786.996 346.476 786.64 346.151 786.186C345.409 785.151 345.191 783.463 345.359 782.085L340.396 781.479C340.15 783.488 340.321 786.636 342.087 789.1C343.016 790.395 344.36 791.454 346.17 791.989Z" fill="#8F96B1" fill-opacity="0.04"/>
<path fill-rule="evenodd" clip-rule="evenodd" d="M106.665 622.701C104.296 610.274 108.291 595.137 124.927 578.679C140.593 563.182 143.905 547.7 141.95 534.697C139.971 521.535 132.546 510.636 126.326 504.681L129.784 501.07C136.616 507.611 144.716 519.467 146.894 533.954C149.096 548.6 145.198 565.66 128.444 582.234C112.66 597.848 109.597 611.383 111.577 621.765C113.59 632.324 120.935 640.278 127.142 644.333L124.408 648.519C117.411 643.948 109.001 634.953 106.665 622.701Z" fill="#8F96B1" fill-opacity="0.04"/>
<path fill-rule="evenodd" clip-rule="evenodd" d="M48.4168 616.436C44.1295 618.335 38.5764 618.794 31.5633 617.496C25.2602 616.329 20.6585 617.041 17.2897 618.719C13.9241 620.395 11.5225 623.169 9.85808 626.613C6.47127 633.62 6.33362 643.029 7.35699 649.651L2.41563 650.415C1.31698 643.305 1.34613 632.734 5.35628 624.437C7.39028 620.228 10.4948 616.517 15.0603 614.243C19.6228 611.971 25.3775 611.265 32.4737 612.579C38.8599 613.762 43.3144 613.227 46.3916 611.864C49.4153 610.525 51.3607 608.275 52.5625 605.471C55.0519 599.664 54.2606 591.628 52.5656 585.826L57.365 584.424C59.1871 590.661 60.3217 600.061 57.1581 607.441C55.5334 611.231 52.7576 614.513 48.4168 616.436Z" fill="#8F96B1" fill-opacity="0.04"/>
<path fill-rule="evenodd" clip-rule="evenodd" d="M133.189 773.088C123.651 771.923 113.342 765.717 104.301 750.586C95.9091 736.54 85.446 730.913 75.9026 729.383C66.2331 727.833 57.2705 730.456 52.0556 733.31L49.6551 728.924C55.6751 725.629 65.7535 722.692 76.6939 724.446C87.7603 726.22 99.4758 732.761 108.593 748.021C117.063 762.197 126.173 767.194 133.796 768.125C141.543 769.072 148.324 765.895 152.155 762.679L155.369 766.509C150.724 770.408 142.603 774.239 133.189 773.088Z" fill="#FF8470" fill-opacity="0.04"/>
<path fill-rule="evenodd" clip-rule="evenodd" d="M-4.50288 768.189C-5.12226 766.447 -6.35247 764.803 -8.17072 763.261C-9.46208 762.166 -10.0598 761.163 -10.3186 760.337C-10.5765 759.514 -10.5542 758.686 -10.3152 757.844C-9.80864 756.059 -8.36395 754.377 -7.10521 753.401L-10.1688 749.45C-11.932 750.817 -14.2288 753.32 -15.1252 756.479C-15.5876 758.108 -15.6822 759.941 -15.09 761.831C-14.4988 763.719 -13.2796 765.484 -11.405 767.074C-10.0572 768.217 -9.46065 769.17 -9.21402 769.864C-8.98001 770.522 -9.00867 771.087 -9.18443 771.618C-9.5848 772.826 -10.8218 773.996 -12.0354 774.67L-9.60599 779.041C-7.83699 778.057 -5.3915 776.068 -4.43808 773.19C-3.93695 771.677 -3.87088 769.967 -4.50288 768.189Z" fill="#8F96B1" fill-opacity="0.04"/>
<path fill-rule="evenodd" clip-rule="evenodd" d="M-40.7405 348.421C-34.3402 359.334 -33.0265 374.934 -43.1794 396.018C-52.74 415.873 -50.6673 431.568 -44.4641 443.162C-38.1852 454.898 -27.5344 462.675 -19.6775 466.2L-21.7239 470.762C-30.3545 466.89 -41.9618 458.438 -48.8728 445.521C-55.8596 432.462 -57.9088 415.082 -47.6844 393.849C-38.0523 373.846 -39.7064 360.068 -45.0535 350.951C-50.4912 341.679 -60.0786 336.649 -67.2868 334.911L-66.1146 330.05C-57.9895 332.01 -47.05 337.663 -40.7405 348.421Z" fill="#8F96B1" fill-opacity="0.04"/>
<path fill-rule="evenodd" clip-rule="evenodd" d="M16.2354 334.787C19.6373 331.56 24.7147 329.265 31.7571 328.136C38.0866 327.121 42.1829 324.907 44.7937 322.196C47.402 319.488 48.7342 316.07 49.1472 312.267C49.9874 304.529 46.9615 295.62 43.776 289.724L48.1751 287.347C51.5948 293.677 55.1128 303.645 54.118 312.807C53.6134 317.454 51.9333 321.991 48.395 325.665C44.8591 329.336 39.6743 331.931 32.5485 333.073C26.1356 334.101 22.1183 336.098 19.6766 338.415C17.2773 340.691 16.1992 343.463 16.0073 346.507C15.6099 352.813 19.0509 360.118 22.5936 365.015L18.5425 367.946C14.7341 362.682 10.5121 354.206 11.0172 346.192C11.2766 342.077 12.7911 338.055 16.2354 334.787Z" fill="#8F96B1" fill-opacity="0.04"/>
<path fill-rule="evenodd" clip-rule="evenodd" d="M-116.169 215.642C-106.792 213.541 -94.9986 215.929 -81.4066 227.152C-68.7893 237.57 -57.0451 239.361 -47.5414 237.601C-37.9122 235.818 -30.3485 230.341 -26.393 225.903L-22.6604 229.23C-27.2266 234.353 -35.7361 240.501 -46.631 242.518C-57.6514 244.558 -70.8821 242.326 -84.59 231.007C-97.3232 220.494 -107.582 218.842 -115.075 220.521C-122.691 222.228 -128.014 227.495 -130.544 231.809L-134.857 229.28C-131.789 224.049 -125.423 217.716 -116.169 215.642Z" fill="#8F96B1" fill-opacity="0.04"/>
<path fill-rule="evenodd" clip-rule="evenodd" d="M15.1907 174.075C16.3585 175.508 18.0687 176.644 20.2989 177.487C21.8829 178.086 22.7822 178.83 23.3032 179.521C23.8223 180.211 24.0789 180.998 24.1362 181.871C24.2576 183.722 23.4607 185.792 22.6022 187.133L26.8137 189.828C28.0163 187.949 29.3403 184.82 29.1255 181.544C29.0147 179.854 28.489 178.096 27.297 176.513C26.1069 174.933 24.3663 173.679 22.0669 172.81C20.4137 172.185 19.5322 171.488 19.0672 170.917C18.6259 170.375 18.4635 169.833 18.4511 169.275C18.4229 168.002 19.196 166.485 20.113 165.442L16.3586 162.14C15.0219 163.66 13.3852 166.354 13.4523 169.385C13.4876 170.978 13.9991 172.612 15.1907 174.075Z" fill="#8F96B1" fill-opacity="0.04"/>
<path fill-rule="evenodd" clip-rule="evenodd" d="M125.123 -74.8328C112.601 -73.0248 97.6596 -77.696 81.9664 -95.0559C67.1889 -111.403 51.872 -115.408 38.7943 -114.039C25.5568 -112.654 14.3348 -105.726 8.10567 -99.7808L4.65341 -103.398C11.4959 -109.929 23.704 -117.487 38.274 -119.012C53.0038 -120.553 69.8719 -115.891 85.6755 -98.4089C100.564 -81.9396 113.947 -78.271 124.408 -79.7814C135.047 -81.3175 143.323 -88.2975 147.653 -94.3165L151.712 -91.3964C146.831 -84.6118 137.467 -76.6151 125.123 -74.8328Z" fill="#8F96B1" fill-opacity="0.04"/>
<path fill-rule="evenodd" clip-rule="evenodd" d="M116.244 -16.925C117.948 -12.5567 118.158 -6.98853 116.545 -0.0409393C115.096 6.20337 115.6 10.8324 117.125 14.2733C118.648 17.7109 121.311 20.2347 124.677 22.0523C131.525 25.7508 140.917 26.3114 147.579 25.5869L148.12 30.5576C140.968 31.3354 130.409 30.831 122.301 26.4518C118.188 24.2305 114.62 20.9623 112.554 16.2991C110.488 11.639 110.043 5.85843 111.674 -1.17145C113.143 -7.49804 112.809 -11.9721 111.586 -15.1075C110.384 -18.1883 108.224 -20.2329 105.477 -21.5596C99.7877 -24.3076 91.7237 -23.8785 85.8517 -22.4461L84.6668 -27.3037C90.9792 -28.8435 100.421 -29.5542 107.652 -26.0619C111.365 -24.2685 114.518 -21.3478 116.244 -16.925Z" fill="#8F96B1" fill-opacity="0.04"/>
<path fill-rule="evenodd" clip-rule="evenodd" d="M276.55 -94.5671C274.957 -85.0912 268.294 -75.0712 252.771 -66.7203C238.362 -58.9683 232.27 -48.7688 230.313 -39.3038C228.33 -29.7139 230.547 -20.6423 233.164 -15.3044L228.674 -13.1035C225.654 -19.2656 223.173 -29.4659 225.417 -40.3164C227.686 -51.2919 234.747 -62.7013 250.403 -71.1235C264.944 -78.9467 270.346 -87.8229 271.619 -95.3962C272.914 -103.093 270.044 -110.01 267.004 -113.982L270.975 -117.021C274.661 -112.205 278.123 -103.92 276.55 -94.5671Z" fill="#8F96B1" fill-opacity="0.04"/>
<path fill-rule="evenodd" clip-rule="evenodd" d="M265.464 42.7654C263.696 43.3058 261.999 44.4608 260.376 46.2079C259.224 47.4487 258.196 48.0007 257.358 48.2221C256.524 48.4427 255.698 48.3832 254.868 48.1066C253.108 47.5203 251.492 46.0014 250.574 44.7001L246.489 47.5829C247.775 49.4058 250.173 51.8128 253.288 52.8503C254.894 53.3855 256.721 53.5624 258.637 53.0559C260.549 52.5502 262.367 51.4116 264.04 49.6103C265.243 48.3153 266.221 47.7622 266.925 47.5471C267.593 47.3429 268.156 47.3969 268.679 47.5964C269.868 48.0507 270.981 49.339 271.6 50.5817L276.075 48.3513C275.172 46.5399 273.295 44.0074 270.463 42.9255C268.974 42.3569 267.268 42.2139 265.464 42.7654Z" fill="#8F96B1" fill-opacity="0.04"/>
<path fill-rule="evenodd" clip-rule="evenodd" d="M221.442 276.467C232.886 281.861 242.778 293.994 246.302 317.129C249.621 338.914 260.193 350.699 271.859 356.766C283.667 362.907 296.849 363.312 305.324 361.785L306.211 366.706C296.901 368.384 282.549 367.961 269.552 361.202C256.412 354.368 244.908 341.18 241.359 317.882C238.015 295.934 228.871 285.496 219.31 280.99C209.587 276.407 198.834 277.669 191.903 280.304L190.127 275.631C197.939 272.66 210.16 271.15 221.442 276.467Z" fill="#8F96B1" fill-opacity="0.04"/>
<path fill-rule="evenodd" clip-rule="evenodd" d="M260.77 233.046C261.756 228.461 264.651 223.7 269.826 218.792C274.477 214.381 276.608 210.241 277.232 206.53C277.856 202.822 277.026 199.248 275.219 195.876C271.544 189.015 264.016 183.37 258.059 180.302L260.347 175.857C266.744 179.151 275.275 185.392 279.627 193.515C281.834 197.636 283.009 202.329 282.163 207.359C281.317 212.386 278.503 217.454 273.266 222.42C268.554 226.889 266.366 230.806 265.658 234.097C264.963 237.33 265.638 240.226 267.199 242.847C270.431 248.276 277.396 252.363 283.085 254.405L281.396 259.111C275.28 256.916 267.01 252.305 262.902 245.405C260.793 241.862 259.772 237.687 260.77 233.046Z" fill="#8F96B1" fill-opacity="0.04"/>
<path fill-rule="evenodd" clip-rule="evenodd" d="M84.2191 209.462C90.7718 202.434 101.854 197.747 119.409 199.335C135.705 200.81 146.409 195.658 153.26 188.84C160.201 181.932 163.351 173.14 164.11 167.244L169.069 167.883C168.193 174.689 164.64 184.568 156.787 192.384C148.843 200.29 136.663 205.917 118.958 204.315C102.513 202.827 93.1132 207.255 87.8761 212.872C82.5536 218.581 81.1347 225.933 81.4819 230.923L76.494 231.27C76.073 225.22 77.7518 216.399 84.2191 209.462Z" fill="#8F96B1" fill-opacity="0.04"/>
<path fill-rule="evenodd" clip-rule="evenodd" d="M169.17 100.989C170.943 101.513 172.996 101.484 175.313 100.921C176.958 100.521 178.12 100.627 178.941 100.904C179.758 101.18 180.415 101.685 180.955 102.373C182.1 103.833 182.611 105.99 182.66 107.582L187.658 107.429C187.589 105.199 186.915 101.869 184.888 99.2863C183.843 97.954 182.416 96.7994 180.539 96.1662C178.664 95.534 176.52 95.4818 174.131 96.0626C172.414 96.4802 171.292 96.4022 170.586 96.1936C169.916 95.9957 169.476 95.6403 169.151 95.186C168.409 94.1514 168.191 92.4631 168.359 91.0848L163.396 90.4791C163.15 92.4881 163.321 95.6358 165.087 98.0997C166.016 99.3948 167.36 100.454 169.17 100.989Z" fill="#8F96B1" fill-opacity="0.04"/>
<path fill-rule="evenodd" clip-rule="evenodd" d="M-70.3348 -68.2986C-72.704 -80.7262 -68.7095 -95.8626 -52.0728 -112.321C-36.4067 -127.818 -33.095 -143.3 -35.0502 -156.303C-37.0292 -169.464 -44.4545 -180.364 -50.6741 -186.319L-47.2162 -189.93C-40.384 -183.389 -32.284 -171.533 -30.1058 -157.046C-27.9036 -142.4 -31.8025 -125.34 -48.5564 -108.766C-64.3396 -93.1524 -67.4026 -79.6175 -65.4232 -69.235C-63.4103 -58.6763 -56.0652 -50.7224 -49.8576 -46.6671L-52.5922 -42.4811C-59.5894 -47.0523 -67.9991 -56.0473 -70.3348 -68.2986Z" fill="#8F96B1" fill-opacity="0.04"/>
<path fill-rule="evenodd" clip-rule="evenodd" d="M-128.583 -74.5643C-132.87 -72.6651 -138.424 -72.2058 -145.437 -73.5043C-151.74 -74.6714 -156.342 -73.9593 -159.71 -72.2813C-163.076 -70.6048 -165.477 -67.8314 -167.142 -64.3874C-170.529 -57.3797 -170.666 -47.9714 -169.643 -41.3486L-174.584 -40.5851C-175.683 -47.695 -175.654 -58.2656 -171.644 -66.5631C-169.61 -70.7717 -166.505 -74.4825 -161.94 -76.7567C-157.377 -79.0294 -151.622 -79.7347 -144.526 -78.4208C-138.14 -77.2383 -133.686 -77.7727 -130.608 -79.1359C-127.585 -80.4753 -125.639 -82.725 -124.437 -85.5286C-121.948 -91.3358 -122.739 -99.3724 -124.434 -105.174L-119.635 -106.576C-117.813 -100.339 -116.678 -90.9386 -119.842 -83.5586C-121.467 -79.7687 -124.242 -76.4873 -128.583 -74.5643Z" fill="#8F96B1" fill-opacity="0.04"/>
<path fill-rule="evenodd" clip-rule="evenodd" d="M-43.8108 82.0883C-53.3489 80.9227 -63.6582 74.7174 -72.6988 59.5858C-81.091 45.5396 -91.554 39.9128 -101.097 38.383C-110.767 36.833 -119.73 39.4561 -124.944 42.3103L-127.345 37.9243C-121.325 34.6294 -111.246 31.6923 -100.306 33.446C-89.2397 35.2199 -77.5242 41.7608 -68.4065 57.0214C-59.9373 71.1966 -50.8272 76.1937 -43.2043 77.1252C-35.457 78.0719 -28.676 74.8946 -24.8452 71.6792L-21.6307 75.5089C-26.2758 79.4078 -34.3972 83.2387 -43.8108 82.0883Z" fill="#FF8470" fill-opacity="0.04"/>
<path fill-rule="evenodd" clip-rule="evenodd" d="M-181.503 77.1891C-182.122 75.4469 -183.353 73.8034 -185.171 72.2612C-186.462 71.1659 -187.06 70.1634 -187.319 69.337C-187.577 68.5135 -187.554 67.6859 -187.315 66.8438C-186.809 65.0592 -185.364 63.3771 -184.105 62.4012L-187.169 58.4497C-188.932 59.8167 -191.229 62.3204 -192.125 65.4785C-192.588 67.1077 -192.682 68.9407 -192.09 70.8314C-191.499 72.7191 -190.28 74.4842 -188.405 76.0743C-187.057 77.2175 -186.461 78.1703 -186.214 78.864C-185.98 79.5222 -186.009 80.0871 -186.184 80.6177C-186.585 81.8263 -187.822 82.9958 -189.035 83.6705L-186.606 88.0406C-184.837 87.0572 -182.392 85.0681 -181.438 82.19C-180.937 80.6773 -180.871 78.9668 -181.503 77.1891Z" fill="#8F96B1" fill-opacity="0.04"/>
</svg>
