<svg width="40" height="42" viewBox="0 0 40 42" fill="none" xmlns="http://www.w3.org/2000/svg">
<path fill-rule="evenodd" clip-rule="evenodd" d="M17.1291 1.28598C18.4589 -0.428661 21.0487 -0.428661 22.3785 1.28598L23.5673 2.81891C24.4023 3.89571 25.8104 4.35322 27.1189 3.97291L28.9817 3.4315C31.0653 2.82591 33.1606 4.34821 33.2285 6.51698L33.2892 8.45589C33.3319 9.81789 34.2021 11.0157 35.4842 11.4771L37.3095 12.134C39.3511 12.8688 40.1514 15.3319 38.9316 17.1264L37.8411 18.7307C37.075 19.8577 37.075 21.3382 37.8411 22.4651L38.9316 24.0695C40.1514 25.8639 39.3511 28.3271 37.3095 29.0619L35.4842 29.7188C34.2021 30.1802 33.3319 31.378 33.2892 32.74L33.2285 34.6789C33.1606 36.8477 31.0653 38.37 28.9817 37.7644L27.1189 37.223C25.8104 36.8427 24.4023 37.3002 23.5673 38.377L22.3785 39.9099C21.0487 41.6245 18.4589 41.6245 17.1291 39.9099L15.9403 38.377C15.1053 37.3002 13.6972 36.8427 12.3887 37.223L10.5259 37.7644C8.44231 38.37 6.34705 36.8477 6.27913 34.6789L6.2184 32.74C6.17575 31.378 5.30552 30.1802 4.02336 29.7188L2.19811 29.0619C0.156479 28.3271 -0.643839 25.8639 0.575979 24.0695L1.66652 22.4651C2.43257 21.3382 2.43257 19.8577 1.66652 18.7307L0.575979 17.1264C-0.643839 15.3319 0.156479 12.8688 2.19811 12.134L4.02336 11.4771C5.30552 11.0157 6.17575 9.81789 6.2184 8.45589L6.27913 6.51697C6.34705 4.34821 8.44231 2.82591 10.5259 3.4315L12.3887 3.97291C13.6972 4.35322 15.1053 3.89571 15.9403 2.81891L17.1291 1.28598ZM8.68573 23.5592C7.76664 22.6401 7.76664 21.15 8.68573 20.2309C9.60481 19.3118 11.0949 19.3118 12.014 20.2309L15.7017 23.9186L26.6503 12.97C27.6349 11.9854 29.2312 11.9854 30.2158 12.97C31.2004 13.9546 31.2004 15.5509 30.2158 16.5355L17.7366 29.0147C17.1129 29.6384 16.2436 29.867 15.44 29.7005C14.9752 29.6218 14.5296 29.4031 14.1709 29.0444L8.68573 23.5592Z" fill="white"/>
</svg>
